<?xml version="1.0" standalone="no"?>
<!DOCTYPE svg PUBLIC "-//W3C//DTD SVG 20010904//EN"
 "http://www.w3.org/TR/2001/REC-SVG-20010904/DTD/svg10.dtd">
<svg version="1.0" xmlns="http://www.w3.org/2000/svg"
 width="700.000000pt" height="700.000000pt" viewBox="0 0 700.000000 700.000000"
 preserveAspectRatio="xMidYMid meet">
<metadata>
Created by potrace 1.11, written by Peter Selinger 2001-2013
</metadata>
<g transform="translate(0.000000,700.000000) scale(0.100000,-0.100000)"
fill="#000000" stroke="none">
<path d="M3427 6406 c-80 -22 -124 -61 -228 -207 -85 -119 -544 -772 -667
-949 -25 -36 -75 -108 -112 -160 -37 -52 -84 -120 -105 -150 -445 -636 -860
-1228 -918 -1310 -191 -271 -203 -289 -218 -344 -29 -105 -1 -206 77 -282 75
-74 118 -86 307 -88 84 0 151 -5 150 -9 -1 -8 -454 -577 -613 -772 -63 -77
-166 -209 -183 -236 -59 -91 -51 -235 20 -327 30 -40 103 -89 154 -102 22 -6
435 -10 1078 -11 l1041 0 1 -462 c0 -254 2 -470 4 -480 7 -36 47 -105 80 -139
58 -58 119 -82 205 -82 91 0 154 28 217 97 72 78 73 87 73 608 l0 458 1048 1
c1096 0 1067 -1 1148 42 75 40 135 145 136 238 2 104 -5 118 -181 345 -32 40
-295 368 -430 535 -111 137 -214 267 -221 281 -8 14 8 16 144 16 178 0 227 12
296 72 59 50 93 119 98 196 6 87 -10 132 -86 244 -69 102 -831 1194 -884 1266
-16 22 -88 123 -159 225 -70 102 -133 192 -139 200 -103 147 -490 699 -694
992 -75 108 -153 211 -173 229 -74 64 -176 89 -266 65z m111 -844 c18 -26 59
-83 89 -127 31 -44 116 -165 189 -270 74 -104 138 -197 144 -205 6 -8 67 -96
136 -195 69 -99 137 -196 150 -215 142 -201 587 -838 652 -931 l83 -119 -173
-1 c-192 -1 -217 -3 -262 -26 -139 -70 -195 -200 -155 -355 8 -30 72 -129 114
-174 5 -6 24 -28 40 -50 24 -30 212 -265 268 -334 122 -152 407 -511 407 -513
0 -3 -321 -4 -712 -4 l-713 0 -5 771 -5 771 -24 45 c-53 100 -137 153 -251
157 -63 2 -85 -2 -129 -22 -60 -28 -111 -76 -143 -137 l-23 -43 -3 -771 -2
-771 -715 0 c-393 0 -715 1 -715 3 0 2 7 12 15 21 62 75 727 911 761 956 63
85 81 164 58 254 -25 96 -79 160 -170 200 -31 14 -78 19 -230 23 l-192 5 210
300 c115 165 216 309 224 320 12 17 315 450 472 675 25 36 152 216 281 400
129 184 246 352 260 373 13 20 27 37 30 37 3 0 21 -22 39 -48z"/>
</g>
</svg>
